<svg width="10" height="20" viewBox="0 0 10 20" fill="none" xmlns="http://www.w3.org/2000/svg">
<path d="M0.382399 0.440231C0.137549 0.722196 0 1.10457 0 1.50327C0 1.90197 0.137549 2.28434 0.382399 2.56631L6.84743 10.0091L0.382399 17.4518C0.144488 17.7354 0.0128435 18.1152 0.0158193 18.5095C0.018795 18.9037 0.156153 19.2808 0.398309 19.5596C0.640464 19.8384 0.968042 19.9965 1.31049 19.9999C1.65294 20.0034 1.98285 19.8518 2.22918 19.5779L9.6176 11.0721C9.86245 10.7902 10 10.4078 10 10.0091C10 9.61038 9.86245 9.228 9.6176 8.94604L2.22918 0.440231C1.98425 0.158351 1.65211 0 1.30579 0C0.959466 0 0.627323 0.158351 0.382399 0.440231Z" fill="#7E7E7E"/>
</svg>
