<svg width="141" height="21" viewBox="0 0 141 21" fill="none" xmlns="http://www.w3.org/2000/svg">
<path d="M18.2188 10.625C18.1979 10.875 18.2188 11.1146 18.2812 11.3438C18.3438 11.5729 18.4167 11.8021 18.5 12.0312C18.6042 12.2396 18.6979 12.4583 18.7812 12.6875C18.8646 12.9167 18.9271 13.1458 18.9688 13.375C19.0104 13.6667 19.0104 13.9896 18.9688 14.3438C18.9271 14.6771 18.8542 15.0104 18.75 15.3438C18.6458 15.6562 18.5104 15.9479 18.3438 16.2188C18.1771 16.4688 17.9792 16.6562 17.75 16.7812C17.4583 17.1562 17.1042 17.4479 16.6875 17.6562C16.2708 17.8646 15.8854 18.1146 15.5312 18.4062C15.3021 18.5521 15.0417 18.6562 14.75 18.7188C14.4792 18.7812 14.1979 18.8438 13.9062 18.9062C13.6771 19.0312 13.4062 19.1667 13.0938 19.3125C12.7812 19.4375 12.4583 19.5625 12.125 19.6875C11.7917 19.7917 11.4583 19.875 11.125 19.9375C10.7917 19.9792 10.5 19.9896 10.25 19.9688C9.625 20.1979 9.01042 20.3438 8.40625 20.4062C7.82292 20.4896 7.13542 20.4479 6.34375 20.2812C5.59375 20.3854 4.89583 20.3542 4.25 20.1875C3.625 20.0208 3.0625 19.7604 2.5625 19.4062C2.08333 19.0312 1.65625 18.5938 1.28125 18.0938C0.927083 17.5729 0.635417 17.0312 0.40625 16.4688C0.239583 15.2812 0.28125 14.2083 0.53125 13.25C0.78125 12.2708 1.13542 11.375 1.59375 10.5625C2.07292 9.72917 2.61458 8.96875 3.21875 8.28125C3.82292 7.57292 4.40625 6.88542 4.96875 6.21875C5.09375 6.26042 5.1875 6.26042 5.25 6.21875C5.33333 6.15625 5.40625 6.08333 5.46875 6C5.53125 5.89583 5.59375 5.80208 5.65625 5.71875C5.73958 5.63542 5.83333 5.58333 5.9375 5.5625C6.08333 5.25 6.29167 5.02083 6.5625 4.875C6.85417 4.70833 7.08333 4.47917 7.25 4.1875C7.4375 4.14583 7.59375 4.08333 7.71875 4C7.84375 3.91667 7.95833 3.82292 8.0625 3.71875C8.1875 3.61458 8.3125 3.52083 8.4375 3.4375C8.5625 3.33333 8.70833 3.26042 8.875 3.21875V2.875C9.25 2.70833 9.52083 2.52083 9.6875 2.3125C9.875 2.08333 10.0938 1.8125 10.3438 1.5C10.5312 1.47917 10.6771 1.46875 10.7812 1.46875C10.9062 1.46875 11.0833 1.44792 11.3125 1.40625C11.4792 1.11458 11.625 0.895833 11.75 0.75C11.8958 0.604167 12.1042 0.447917 12.375 0.28125C12.625 0.40625 12.8958 0.489583 13.1875 0.53125C13.5 0.572917 13.7708 0.708333 14 0.9375C14.0208 1.14583 14.0833 1.3125 14.1875 1.4375C14.2917 1.54167 14.4062 1.64583 14.5312 1.75C14.6562 1.83333 14.7708 1.92708 14.875 2.03125C15 2.13542 15.0833 2.28125 15.125 2.46875C15.2083 2.48958 15.2604 2.47917 15.2812 2.4375C15.3229 2.39583 15.3854 2.38542 15.4688 2.40625C15.5312 2.69792 15.6042 2.89583 15.6875 3C15.7708 3.08333 15.8542 3.26042 15.9375 3.53125C15.8333 3.73958 15.75 3.95833 15.6875 4.1875C15.6458 4.39583 15.5208 4.55208 15.3125 4.65625C15.2917 4.80208 15.3333 4.88542 15.4375 4.90625C15.5417 4.90625 15.6042 4.95833 15.625 5.0625C15.6458 5.25 15.6146 5.38542 15.5312 5.46875C16.0312 6.28125 16.4792 7.14583 16.875 8.0625C17.2708 8.95833 17.7188 9.8125 18.2188 10.625ZM14.3125 13.5938C14.3958 13.3646 14.5 13.1771 14.625 13.0312C14.7708 12.8854 14.8542 12.6667 14.875 12.375C14.7708 12.2083 14.7083 12.0833 14.6875 12C14.6667 11.8958 14.6562 11.7396 14.6562 11.5312C14.1979 10.8854 13.8021 10.1979 13.4688 9.46875C13.1354 8.71875 12.7604 8.02083 12.3438 7.375C12.3021 7.45833 12.2292 7.54167 12.125 7.625C12.0208 7.70833 11.9062 7.6875 11.7812 7.5625C11.7396 7.72917 11.6667 7.85417 11.5625 7.9375C11.4583 8 11.3438 8.03125 11.2188 8.03125C11.0938 8.01042 10.9583 7.97917 10.8125 7.9375C10.6875 7.875 10.5729 7.80208 10.4688 7.71875C9.86458 8.19792 9.26042 8.66667 8.65625 9.125C8.05208 9.58333 7.51042 10.1146 7.03125 10.7188C6.94792 10.7604 6.89583 10.7812 6.875 10.7812C6.85417 10.7604 6.79167 10.7708 6.6875 10.8125C6.52083 11.2083 6.3125 11.5729 6.0625 11.9062C5.83333 12.2188 5.60417 12.5417 5.375 12.875C5.14583 13.2083 4.94792 13.5625 4.78125 13.9375C4.61458 14.3125 4.52083 14.75 4.5 15.25C4.85417 15.5417 5.27083 15.7188 5.75 15.7812C6.22917 15.8438 6.71875 15.8542 7.21875 15.8125C7.73958 15.7708 8.23958 15.7083 8.71875 15.625C9.21875 15.5208 9.67708 15.4688 10.0938 15.4688C10.9688 15.2604 11.7188 14.9896 12.3438 14.6562C12.9688 14.3021 13.625 13.9479 14.3125 13.5938ZM31.2812 0.625C32.1562 0.729167 32.9375 0.90625 33.625 1.15625C34.3125 1.40625 34.8958 1.73958 35.375 2.15625C35.7083 2.67708 36.0208 3.23958 36.3125 3.84375C36.625 4.44792 36.8542 5.08333 37 5.75C37.1667 6.39583 37.2396 7.0625 37.2188 7.75C37.2188 8.4375 37.0729 9.13542 36.7812 9.84375C36.1771 10.5938 35.4375 11.2083 34.5625 11.6875C33.7083 12.1458 32.7812 12.5208 31.7812 12.8125C30.7812 13.1042 29.7396 13.3542 28.6562 13.5625C27.5938 13.7708 26.5521 13.9792 25.5312 14.1875C25.5521 14.6667 25.5521 15.1771 25.5312 15.7188C25.5312 16.2396 25.4792 16.7708 25.375 17.3125C25.2917 17.8333 25.1562 18.3438 24.9688 18.8438C24.7812 19.3438 24.5312 19.8021 24.2188 20.2188C23.8646 20.2188 23.5 20.2604 23.125 20.3438C22.75 20.4479 22.4167 20.5312 22.125 20.5938C21.9792 20.5104 21.8438 20.4271 21.7188 20.3438C21.6146 20.2812 21.4583 20.2396 21.25 20.2188C21.2917 20.0104 21.2396 19.8021 21.0938 19.5938C20.9479 19.3646 20.8021 19.1354 20.6562 18.9062C20.5104 18.6771 20.4062 18.4583 20.3438 18.25C20.3021 18.0417 20.4062 17.8438 20.6562 17.6562C20.5104 17.5104 20.4375 17.3229 20.4375 17.0938C20.5833 16.8438 20.7083 16.5 20.8125 16.0625C20.9375 15.625 21.0312 15.1979 21.0938 14.7812C21.1771 14.3438 21.1979 13.9479 21.1562 13.5938C21.1146 13.2396 20.9062 12.9792 20.5312 12.8125C20.5521 12.7708 20.5938 12.75 20.6562 12.75C20.7188 12.75 20.7812 12.7396 20.8438 12.7188C20.6771 12.5938 20.5729 12.4167 20.5312 12.1875C20.5104 11.9583 20.4375 11.7604 20.3125 11.5938C20.3542 11.4896 20.3854 11.3958 20.4062 11.3125C20.4271 11.2292 20.5 11.1979 20.625 11.2188C20.5625 10.8438 20.5625 10.4896 20.625 10.1562C20.7083 9.82292 20.8229 9.51042 20.9688 9.21875C21.1146 8.90625 21.2917 8.60417 21.5 8.3125C21.7083 8.02083 21.9062 7.72917 22.0938 7.4375C22.2396 7.41667 22.3229 7.4375 22.3438 7.5C22.3854 7.5625 22.4583 7.55208 22.5625 7.46875C22.8333 7.26042 23.0208 7.04167 23.125 6.8125C23.2292 6.58333 23.2812 6.32292 23.2812 6.03125C23.4271 5.59375 23.6042 5.15625 23.8125 4.71875C24.0208 4.26042 24.25 3.84375 24.5 3.46875C24.75 3.09375 25.0208 2.76042 25.3125 2.46875C25.625 2.17708 25.9479 1.95833 26.2812 1.8125C26.5312 1.60417 26.8438 1.41667 27.2188 1.25C27.5938 1.0625 28 0.927083 28.4375 0.84375C28.875 0.739583 29.3125 0.6875 29.75 0.6875C30.2083 0.666667 30.625 0.708333 31 0.8125C31.1042 0.854167 31.1562 0.833333 31.1562 0.75C31.1771 0.666667 31.2188 0.625 31.2812 0.625ZM30 8.09375C30.5208 7.86458 31.0729 7.6875 31.6562 7.5625C32.2604 7.41667 32.7604 7.15625 33.1562 6.78125C32.9062 6.55208 32.5417 6.35417 32.0625 6.1875C31.5833 6 31.0625 5.88542 30.5 5.84375C29.9375 5.80208 29.3646 5.85417 28.7812 6C28.2188 6.125 27.7292 6.375 27.3125 6.75C27.1875 7.125 27.0833 7.42708 27 7.65625C26.9167 7.86458 26.8021 8.125 26.6562 8.4375C26.6979 8.54167 26.7604 8.625 26.8438 8.6875C26.9479 8.72917 27.0208 8.80208 27.0625 8.90625C27.5417 8.65625 28.0208 8.52083 28.5 8.5C29 8.45833 29.5 8.32292 30 8.09375ZM53.7188 2.40625C53.7396 2.55208 53.7396 2.66667 53.7188 2.75C53.7188 2.8125 53.7083 2.875 53.6875 2.9375C53.6875 3 53.6875 3.07292 53.6875 3.15625C53.6875 3.21875 53.7083 3.32292 53.75 3.46875C53.3125 4.17708 52.8021 4.66667 52.2188 4.9375C51.6562 5.1875 51.0417 5.375 50.375 5.5C49.7083 5.60417 49.0208 5.71875 48.3125 5.84375C47.625 5.96875 46.9375 6.23958 46.25 6.65625C45.9792 6.55208 45.7292 6.55208 45.5 6.65625C45.2917 6.76042 44.9792 6.79167 44.5625 6.75C44.4375 6.875 44.2812 6.96875 44.0938 7.03125C43.9062 7.07292 43.7188 7.125 43.5312 7.1875C43.6146 7.375 43.6458 7.57292 43.625 7.78125C43.625 7.96875 43.6562 8.125 43.7188 8.25C44.4479 8.3125 45.25 8.30208 46.125 8.21875C47.0208 8.13542 47.8958 8.08333 48.75 8.0625C48.7708 8.16667 48.7604 8.23958 48.7188 8.28125C48.6771 8.30208 48.6667 8.35417 48.6875 8.4375C48.8333 8.54167 48.9792 8.67708 49.125 8.84375C49.2708 8.98958 49.4167 9.13542 49.5625 9.28125C49.7083 9.42708 49.8542 9.55208 50 9.65625C50.1667 9.73958 50.3542 9.77083 50.5625 9.75C50.6458 9.91667 50.6979 10.1042 50.7188 10.3125C50.7604 10.5 50.7396 10.6979 50.6562 10.9062C50.3229 11.1354 49.9896 11.375 49.6562 11.625C49.3229 11.8542 48.9688 12.0625 48.5938 12.25C48.2396 12.4375 47.8542 12.5938 47.4375 12.7188C47.0417 12.8229 46.5938 12.8646 46.0938 12.8438C45.9896 12.8438 45.9062 12.8438 45.8438 12.8438C45.8021 12.8438 45.7396 12.8125 45.6562 12.75C45.4896 12.8542 45.25 12.8854 44.9375 12.8438C44.6458 12.8021 44.4167 12.8333 44.25 12.9375C44.0208 12.8333 43.7396 12.7917 43.4062 12.8125C43.0938 12.8125 42.8125 12.7708 42.5625 12.6875C42.2292 13.125 41.9271 13.5938 41.6562 14.0938C41.3854 14.5938 41.1458 15.125 40.9375 15.6875C41.6458 15.7917 42.2292 15.8333 42.6875 15.8125C43.1667 15.7917 43.6146 15.7604 44.0312 15.7188C44.4479 15.6562 44.875 15.6042 45.3125 15.5625C45.75 15.5 46.3021 15.4792 46.9688 15.5C47.3854 15.2708 47.875 15.125 48.4375 15.0625C49.0208 14.9792 49.5521 14.8542 50.0312 14.6875C50.1979 14.75 50.3438 14.8646 50.4688 15.0312C50.5938 15.1771 50.7083 15.3229 50.8125 15.4688C50.9375 15.5938 51.0625 15.7083 51.1875 15.8125C51.3125 15.9167 51.4688 15.9583 51.6562 15.9375C51.7396 16.0208 51.7917 16.125 51.8125 16.25C51.8542 16.3542 51.8854 16.4583 51.9062 16.5625C51.9271 16.6667 51.9583 16.7604 52 16.8438C52.0625 16.9062 52.1562 16.9271 52.2812 16.9062C51.9688 17.5938 51.6042 18.125 51.1875 18.5C50.7917 18.8542 50.3333 19.125 49.8125 19.3125C49.2917 19.5 48.7083 19.6458 48.0625 19.75C47.4375 19.8542 46.7396 19.9792 45.9688 20.125C45.7812 20.1667 45.625 20.1562 45.5 20.0938C45.375 20.0521 45.2292 20.0312 45.0625 20.0312C44.5833 20.1354 44.0104 20.2292 43.3438 20.3125C42.6771 20.3958 42 20.4271 41.3125 20.4062C40.625 20.3854 39.9688 20.2917 39.3438 20.125C38.7188 19.9792 38.2083 19.7083 37.8125 19.3125C37.6458 19.1667 37.5312 19 37.4688 18.8125C37.4271 18.6042 37.2917 18.4479 37.0625 18.3438C37.0417 18.0729 37 17.7708 36.9375 17.4375C36.875 17.1042 36.8125 16.7604 36.75 16.4062C36.6875 16.0312 36.6354 15.6667 36.5938 15.3125C36.5729 14.9583 36.5938 14.6354 36.6562 14.3438C36.7188 14.0312 36.8438 13.75 37.0312 13.5C37.2396 13.25 37.3125 12.9792 37.25 12.6875C37.3542 12.6667 37.4167 12.6146 37.4375 12.5312C37.4583 12.4271 37.5417 12.3854 37.6875 12.4062C37.8125 12.0312 37.9479 11.6771 38.0938 11.3438C38.2396 11.0104 38.3854 10.6875 38.5312 10.375C38.6979 10.0625 38.8542 9.75 39 9.4375C39.1667 9.10417 39.3229 8.73958 39.4688 8.34375C39.1771 8.07292 38.9583 7.78125 38.8125 7.46875C38.6875 7.13542 38.5938 6.8125 38.5312 6.5C38.4688 6.16667 38.4167 5.83333 38.375 5.5C38.3333 5.14583 38.2604 4.79167 38.1562 4.4375C38.3646 4.125 38.6146 3.875 38.9062 3.6875C39.2188 3.47917 39.5521 3.3125 39.9062 3.1875C40.2604 3.0625 40.6458 2.95833 41.0625 2.875C41.4792 2.79167 41.9167 2.69792 42.375 2.59375C43.2083 2.32292 43.9479 2.11458 44.5938 1.96875C45.2604 1.82292 45.9062 1.70833 46.5312 1.625C47.1771 1.52083 47.8438 1.42708 48.5312 1.34375C49.2188 1.26042 50 1.13542 50.875 0.96875C51.0625 1.15625 51.2396 1.25 51.4062 1.25C51.4896 1.0625 51.5833 1.01042 51.6875 1.09375C51.8125 1.15625 51.8646 1.09375 51.8438 0.90625C52.0521 1.26042 52.3125 1.5625 52.625 1.8125C52.9583 2.04167 53.3229 2.23958 53.7188 2.40625ZM59.375 14.3125C59.1875 14.3542 59.0521 14.4688 58.9688 14.6562C58.8854 14.8229 58.8021 15 58.7188 15.1875C58.6562 15.375 58.5833 15.5521 58.5 15.7188C58.4375 15.8646 58.3333 15.9375 58.1875 15.9375C58.1667 16.1042 58.1042 16.25 58 16.375C57.9167 16.5 57.8333 16.6354 57.75 16.7812C57.6667 16.9062 57.6042 17.0521 57.5625 17.2188C57.5208 17.3646 57.5417 17.5417 57.625 17.75C57.4583 17.875 57.3542 18.0521 57.3125 18.2812C57.2708 18.5104 57.2188 18.7292 57.1562 18.9375C57.1146 19.1458 57.0312 19.3229 56.9062 19.4688C56.7812 19.6146 56.5521 19.6771 56.2188 19.6562C56.1562 19.7396 56.1458 19.7917 56.1875 19.8125C56.2292 19.8333 56.2604 19.9062 56.2812 20.0312C56.0521 19.9896 55.875 20 55.75 20.0625C55.6458 20.1458 55.5104 20.1979 55.3438 20.2188C54.9479 20.0938 54.6146 19.875 54.3438 19.5625C54.0938 19.25 53.8646 18.9062 53.6562 18.5312C53.4688 18.1354 53.2917 17.7396 53.125 17.3438C52.9792 16.9479 52.8333 16.6042 52.6875 16.3125C52.75 16.0833 52.7604 15.8646 52.7188 15.6562C52.6771 15.4271 52.6042 15.2396 52.5 15.0938C53.5208 12.9271 54.6354 10.6146 55.8438 8.15625C57.0521 5.69792 58.1979 3.27083 59.2812 0.875C59.7604 1.0625 60.2292 1.28125 60.6875 1.53125C61.1667 1.76042 61.5938 2.03125 61.9688 2.34375C62.3646 2.65625 62.6979 3.02083 62.9688 3.4375C63.2396 3.83333 63.4167 4.28125 63.5 4.78125C63.4583 4.90625 63.4062 4.95833 63.3438 4.9375C63.3021 4.89583 63.2604 4.90625 63.2188 4.96875C63.3021 5.07292 63.3438 5.14583 63.3438 5.1875C63.3646 5.22917 63.3646 5.27083 63.3438 5.3125C63.3438 5.35417 63.3438 5.41667 63.3438 5.5C63.3438 5.5625 63.375 5.65625 63.4375 5.78125C63.3542 5.76042 63.2917 5.77083 63.25 5.8125C63.2292 5.85417 63.1667 5.85417 63.0625 5.8125C63.1458 6.04167 63.1667 6.22917 63.125 6.375C63.1042 6.52083 63.0625 6.65625 63 6.78125C62.9375 6.88542 62.8854 7.01042 62.8438 7.15625C62.8021 7.28125 62.8125 7.44792 62.875 7.65625C62.8125 7.65625 62.7604 7.67708 62.7188 7.71875C62.6979 7.73958 62.6771 7.77083 62.6562 7.8125C62.6354 7.83333 62.6042 7.86458 62.5625 7.90625C62.5417 7.92708 62.5 7.92708 62.4375 7.90625C62.5 8.36458 62.5208 8.82292 62.5 9.28125C62.4792 9.73958 62.4583 10.2083 62.4375 10.6875C62.4375 11.1458 62.4479 11.6354 62.4688 12.1562C62.4896 12.6562 62.5625 13.1771 62.6875 13.7188C63.4375 13.2812 64.0312 12.7188 64.4688 12.0312C64.9271 11.3438 65.2917 10.5729 65.5625 9.71875C65.8542 8.86458 66.0729 7.94792 66.2188 6.96875C66.3646 5.98958 66.5208 4.98958 66.6875 3.96875C66.875 3.78125 67.0208 3.55208 67.125 3.28125C67.2292 3.01042 67.3229 2.72917 67.4062 2.4375C67.4896 2.125 67.5729 1.82292 67.6562 1.53125C67.7396 1.21875 67.8438 0.9375 67.9688 0.6875C68.2812 0.729167 68.5417 0.833333 68.75 1C68.9792 1.14583 69.1875 1.3125 69.375 1.5C69.5625 1.66667 69.7604 1.83333 69.9688 2C70.1771 2.14583 70.4375 2.23958 70.75 2.28125C71 2.63542 71.2292 2.97917 71.4375 3.3125C71.6458 3.64583 71.7812 4 71.8438 4.375C71.7396 4.54167 71.6562 4.72917 71.5938 4.9375C71.5521 5.14583 71.5 5.35417 71.4375 5.5625C71.375 5.77083 71.2917 5.96875 71.1875 6.15625C71.0833 6.32292 70.9375 6.46875 70.75 6.59375C70.6875 7.13542 70.6042 7.63542 70.5 8.09375C70.4167 8.53125 70.3229 8.96875 70.2188 9.40625C70.1354 9.84375 70.0625 10.3021 70 10.7812C69.9375 11.2396 69.9167 11.75 69.9375 12.3125C69.7708 12.7917 69.5938 13.3021 69.4062 13.8438C69.2188 14.3854 69.0729 14.875 68.9688 15.3125C68.6354 15.5833 68.375 15.9062 68.1875 16.2812C68 16.6562 67.8021 17.0312 67.5938 17.4062C67.5104 17.4896 67.4583 17.5104 67.4375 17.4688C67.4167 17.4271 67.3438 17.3958 67.2188 17.375C67.2396 17.4583 67.2396 17.5208 67.2188 17.5625C67.1979 17.6042 67.1667 17.6458 67.125 17.6875C67.1042 17.7083 67.0833 17.75 67.0625 17.8125C67.0625 17.875 67.0833 17.9583 67.125 18.0625C66.8333 18.1875 66.5729 18.3646 66.3438 18.5938C66.1146 18.8229 65.8646 19.0312 65.5938 19.2188C65.3438 19.4062 65.0312 19.5312 64.6562 19.5938C64.3021 19.6562 63.8333 19.5833 63.25 19.375C62.3958 18.75 61.6354 18.0312 60.9688 17.2188C60.3229 16.4062 59.7917 15.4375 59.375 14.3125ZM92.6562 19.4375C92.4479 19.5417 92.25 19.6354 92.0625 19.7188C91.8958 19.8021 91.6979 19.8438 91.4688 19.8438C90.6562 19.2396 90.2292 18.1875 90.1875 16.6875C90.1667 15.1875 90.4896 13.2812 91.1562 10.9688C91.2604 10.9062 91.3125 10.7812 91.3125 10.5938L91.0312 10.2812C90.9479 10.2812 90.8646 10.2917 90.7812 10.3125C90.7188 10.3333 90.6667 10.4062 90.625 10.5312C90.0833 10.9271 89.4896 11.3438 88.8438 11.7812C88.1979 12.1979 87.5208 12.5938 86.8125 12.9688C86.125 13.3229 85.4167 13.6146 84.6875 13.8438C83.9792 14.0729 83.2812 14.1875 82.5938 14.1875C80.8438 14.1875 79.5312 13.3021 78.6562 11.5312L78.4062 11.0625L78.1562 11.4688C78.0938 11.5521 78 11.7292 77.875 12C77.75 12.25 77.625 12.5417 77.5 12.875C77.375 13.2083 77.2604 13.5521 77.1562 13.9062C77.0729 14.2396 77.0417 14.5312 77.0625 14.7812C76.875 14.9688 76.6771 15.1875 76.4688 15.4375C76.2604 15.6875 76.1042 15.9688 76 16.2812C75.9583 16.4479 75.9792 16.6042 76.0625 16.75C76.0208 16.9375 75.9271 17.0833 75.7812 17.1875C75.6979 17.2917 75.6042 17.3958 75.5 17.5C75.4167 17.5833 75.3438 17.6771 75.2812 17.7812C75.2396 17.8854 75.2083 17.9896 75.1875 18.0938C75.1875 18.1979 75.1771 18.3021 75.1562 18.4062C75.1562 18.5521 75.1354 18.6875 75.0938 18.8125C74.7396 19.5417 74.4583 20.0104 74.25 20.2188C74.0417 20.4479 73.7604 20.5625 73.4062 20.5625C73.2396 20.5625 72.9688 20.5312 72.5938 20.4688C72.3229 20.1771 72.0729 19.7812 71.8438 19.2812C71.6354 18.7604 71.4688 18.2083 71.3438 17.625C71.2396 17.0417 71.1875 16.4583 71.1875 15.875C71.2083 15.2708 71.3125 14.75 71.5 14.3125C71.5 14.2917 71.5833 14.0833 71.75 13.6875C71.9167 13.2917 72.125 12.7812 72.375 12.1562C72.6458 11.5312 72.9479 10.8438 73.2812 10.0938C73.6146 9.32292 73.9479 8.58333 74.2812 7.875C74.6146 7.14583 74.9271 6.47917 75.2188 5.875C75.5312 5.27083 75.7917 4.8125 76 4.5C76.1667 4.25 76.3125 4.02083 76.4375 3.8125C76.5833 3.58333 76.7188 3.36458 76.8438 3.15625C77.2188 2.51042 77.5729 1.97917 77.9062 1.5625C78.2604 1.125 78.7708 0.78125 79.4375 0.53125C79.8958 0.71875 80.2292 0.9375 80.4375 1.1875L80.5 1.53125C80.5833 1.73958 80.7083 1.84375 80.875 1.84375C81.1042 1.90625 81.2917 1.96875 81.4375 2.03125C81.6042 2.07292 81.7812 2.11458 81.9688 2.15625C82.1146 2.32292 82.25 2.52083 82.375 2.75C82.5417 3 82.6979 3.25 82.8438 3.5C83.0104 3.72917 83.1354 3.96875 83.2188 4.21875C83.3229 4.44792 83.375 4.6875 83.375 4.9375C83.3958 5.1875 83.3542 5.44792 83.25 5.71875L83.2812 6.03125C83.3854 6.21875 83.4062 6.47917 83.3438 6.8125C83.3229 6.95833 83.3125 7.11458 83.3125 7.28125C83.3125 7.42708 83.3333 7.59375 83.375 7.78125C83.75 8.07292 84.0833 8.21875 84.375 8.21875C84.7083 8.21875 85.0104 8.14583 85.2812 8C85.5729 7.83333 85.8438 7.66667 86.0938 7.5C86.2604 7.375 86.4271 7.27083 86.5938 7.1875C86.7604 7.08333 86.9271 7.02083 87.0938 7C87.4688 6.64583 87.8021 6.33333 88.0938 6.0625C88.4062 5.79167 88.7292 5.52083 89.0625 5.25C89.6875 4.75 90.2917 4.20833 90.875 3.625C91.4583 3.04167 91.9271 2.3125 92.2812 1.4375C92.4896 1.3125 92.7083 1.25 92.9375 1.25C93.1667 1.25 93.4062 1.30208 93.6562 1.40625C93.9062 1.51042 94.1458 1.61458 94.375 1.71875C94.4375 1.76042 94.4896 1.79167 94.5312 1.8125C94.5938 1.83333 94.6458 1.85417 94.6875 1.875C94.6875 2.08333 94.7708 2.26042 94.9375 2.40625C95.0208 2.46875 95.0729 2.51042 95.0938 2.53125C95.1146 2.55208 95.1458 2.57292 95.1875 2.59375C95.5 2.76042 95.6979 2.92708 95.7812 3.09375C95.9271 3.57292 96.1875 3.9375 96.5625 4.1875C96.5208 4.39583 96.5208 4.59375 96.5625 4.78125C96.625 4.94792 96.6979 5.125 96.7812 5.3125C96.8021 5.375 96.8229 5.4375 96.8438 5.5C96.8646 5.5625 96.8958 5.63542 96.9375 5.71875L96.3438 5.65625L96.4375 6.25C96.4792 6.54167 96.4479 6.86458 96.3438 7.21875C96.2604 7.57292 96.1562 7.85417 96.0312 8.0625C96.0521 8.60417 96.0625 9.03125 96.0625 9.34375C96.0833 9.63542 96.0729 9.91667 96.0312 10.1875C95.9896 10.4375 95.9271 10.6771 95.8438 10.9062C95.7812 11.1354 95.6875 11.3854 95.5625 11.6562C95.6458 12.9896 95.4896 14.2083 95.0938 15.3125C94.7188 16.3958 94.3229 17.4167 93.9062 18.375C93.8646 18.4792 93.8125 18.5833 93.75 18.6875C93.7083 18.7917 93.6667 18.8958 93.625 19C93.4375 19.0625 93.2708 19.1354 93.125 19.2188C92.9792 19.2812 92.8229 19.3542 92.6562 19.4375ZM103.719 17.8125C103.823 18.4375 103.781 18.9271 103.594 19.2812C103.427 19.6354 103.177 19.8958 102.844 20.0625C102.531 20.25 102.167 20.3542 101.75 20.375C101.333 20.3958 100.938 20.375 100.562 20.3125C100.354 20.0208 100.167 19.6562 100 19.2188C99.8333 18.7812 99.6771 18.3333 99.5312 17.875C99.3854 17.3958 99.25 16.9271 99.125 16.4688C99.0208 16.0104 98.9271 15.6042 98.8438 15.25C98.9479 15 99.0104 14.7188 99.0312 14.4062C99.0729 14.0729 99.0938 13.7396 99.0938 13.4062C99.1146 13.0729 99.125 12.7396 99.125 12.4062C99.1458 12.0521 99.1771 11.7188 99.2188 11.4062C99.3646 10.5312 99.5729 9.69792 99.8438 8.90625C100.135 8.11458 100.365 7.29167 100.531 6.4375C100.573 6.25 100.552 6.07292 100.469 5.90625C100.406 5.73958 100.396 5.58333 100.438 5.4375C100.458 5.35417 100.521 5.30208 100.625 5.28125C100.729 5.23958 100.792 5.16667 100.812 5.0625C100.875 4.83333 100.885 4.64583 100.844 4.5C100.823 4.35417 100.865 4.17708 100.969 3.96875C101.073 3.80208 101.198 3.5625 101.344 3.25C101.51 2.91667 101.573 2.57292 101.531 2.21875C101.719 2.09375 101.896 1.94792 102.062 1.78125C102.229 1.61458 102.396 1.46875 102.562 1.34375C102.75 1.19792 102.948 1.07292 103.156 0.96875C103.385 0.864583 103.656 0.8125 103.969 0.8125C104.135 1.02083 104.24 1.25 104.281 1.5C104.344 1.75 104.396 2 104.438 2.25C104.5 2.5 104.583 2.73958 104.688 2.96875C104.792 3.17708 104.969 3.34375 105.219 3.46875C105.219 3.63542 105.219 3.84375 105.219 4.09375C105.219 4.34375 105.229 4.59375 105.25 4.84375C105.271 5.07292 105.312 5.29167 105.375 5.5C105.458 5.6875 105.583 5.8125 105.75 5.875C105.375 6.875 105.021 7.86458 104.688 8.84375C104.375 9.82292 104.115 10.8125 103.906 11.8125C103.698 12.7917 103.562 13.7812 103.5 14.7812C103.458 15.7812 103.531 16.7917 103.719 17.8125ZM113.75 14.3125C113.562 14.3542 113.427 14.4688 113.344 14.6562C113.26 14.8229 113.177 15 113.094 15.1875C113.031 15.375 112.958 15.5521 112.875 15.7188C112.812 15.8646 112.708 15.9375 112.562 15.9375C112.542 16.1042 112.479 16.25 112.375 16.375C112.292 16.5 112.208 16.6354 112.125 16.7812C112.042 16.9062 111.979 17.0521 111.938 17.2188C111.896 17.3646 111.917 17.5417 112 17.75C111.833 17.875 111.729 18.0521 111.688 18.2812C111.646 18.5104 111.594 18.7292 111.531 18.9375C111.49 19.1458 111.406 19.3229 111.281 19.4688C111.156 19.6146 110.927 19.6771 110.594 19.6562C110.531 19.7396 110.521 19.7917 110.562 19.8125C110.604 19.8333 110.635 19.9062 110.656 20.0312C110.427 19.9896 110.25 20 110.125 20.0625C110.021 20.1458 109.885 20.1979 109.719 20.2188C109.323 20.0938 108.99 19.875 108.719 19.5625C108.469 19.25 108.24 18.9062 108.031 18.5312C107.844 18.1354 107.667 17.7396 107.5 17.3438C107.354 16.9479 107.208 16.6042 107.062 16.3125C107.125 16.0833 107.135 15.8646 107.094 15.6562C107.052 15.4271 106.979 15.2396 106.875 15.0938C107.896 12.9271 109.01 10.6146 110.219 8.15625C111.427 5.69792 112.573 3.27083 113.656 0.875C114.135 1.0625 114.604 1.28125 115.062 1.53125C115.542 1.76042 115.969 2.03125 116.344 2.34375C116.74 2.65625 117.073 3.02083 117.344 3.4375C117.615 3.83333 117.792 4.28125 117.875 4.78125C117.833 4.90625 117.781 4.95833 117.719 4.9375C117.677 4.89583 117.635 4.90625 117.594 4.96875C117.677 5.07292 117.719 5.14583 117.719 5.1875C117.74 5.22917 117.74 5.27083 117.719 5.3125C117.719 5.35417 117.719 5.41667 117.719 5.5C117.719 5.5625 117.75 5.65625 117.812 5.78125C117.729 5.76042 117.667 5.77083 117.625 5.8125C117.604 5.85417 117.542 5.85417 117.438 5.8125C117.521 6.04167 117.542 6.22917 117.5 6.375C117.479 6.52083 117.438 6.65625 117.375 6.78125C117.312 6.88542 117.26 7.01042 117.219 7.15625C117.177 7.28125 117.188 7.44792 117.25 7.65625C117.188 7.65625 117.135 7.67708 117.094 7.71875C117.073 7.73958 117.052 7.77083 117.031 7.8125C117.01 7.83333 116.979 7.86458 116.938 7.90625C116.917 7.92708 116.875 7.92708 116.812 7.90625C116.875 8.36458 116.896 8.82292 116.875 9.28125C116.854 9.73958 116.833 10.2083 116.812 10.6875C116.812 11.1458 116.823 11.6354 116.844 12.1562C116.865 12.6562 116.938 13.1771 117.062 13.7188C117.812 13.2812 118.406 12.7188 118.844 12.0312C119.302 11.3438 119.667 10.5729 119.938 9.71875C120.229 8.86458 120.448 7.94792 120.594 6.96875C120.74 5.98958 120.896 4.98958 121.062 3.96875C121.25 3.78125 121.396 3.55208 121.5 3.28125C121.604 3.01042 121.698 2.72917 121.781 2.4375C121.865 2.125 121.948 1.82292 122.031 1.53125C122.115 1.21875 122.219 0.9375 122.344 0.6875C122.656 0.729167 122.917 0.833333 123.125 1C123.354 1.14583 123.562 1.3125 123.75 1.5C123.938 1.66667 124.135 1.83333 124.344 2C124.552 2.14583 124.812 2.23958 125.125 2.28125C125.375 2.63542 125.604 2.97917 125.812 3.3125C126.021 3.64583 126.156 4 126.219 4.375C126.115 4.54167 126.031 4.72917 125.969 4.9375C125.927 5.14583 125.875 5.35417 125.812 5.5625C125.75 5.77083 125.667 5.96875 125.562 6.15625C125.458 6.32292 125.312 6.46875 125.125 6.59375C125.062 7.13542 124.979 7.63542 124.875 8.09375C124.792 8.53125 124.698 8.96875 124.594 9.40625C124.51 9.84375 124.438 10.3021 124.375 10.7812C124.312 11.2396 124.292 11.75 124.312 12.3125C124.146 12.7917 123.969 13.3021 123.781 13.8438C123.594 14.3854 123.448 14.875 123.344 15.3125C123.01 15.5833 122.75 15.9062 122.562 16.2812C122.375 16.6562 122.177 17.0312 121.969 17.4062C121.885 17.4896 121.833 17.5104 121.812 17.4688C121.792 17.4271 121.719 17.3958 121.594 17.375C121.615 17.4583 121.615 17.5208 121.594 17.5625C121.573 17.6042 121.542 17.6458 121.5 17.6875C121.479 17.7083 121.458 17.75 121.438 17.8125C121.438 17.875 121.458 17.9583 121.5 18.0625C121.208 18.1875 120.948 18.3646 120.719 18.5938C120.49 18.8229 120.24 19.0312 119.969 19.2188C119.719 19.4062 119.406 19.5312 119.031 19.5938C118.677 19.6562 118.208 19.5833 117.625 19.375C116.771 18.75 116.01 18.0312 115.344 17.2188C114.698 16.4062 114.167 15.4375 113.75 14.3125ZM140.812 11.5625C140.792 11.6667 140.771 11.7604 140.75 11.8438C140.729 11.9062 140.708 11.9688 140.688 12.0312C140.667 12.0938 140.656 12.1771 140.656 12.2812C140.656 12.3646 140.656 12.4792 140.656 12.625C140.031 13.7292 139.24 14.6562 138.281 15.4062C137.344 16.1562 136.302 16.8229 135.156 17.4062C134.031 17.9688 132.854 18.4896 131.625 18.9688C130.396 19.4271 129.198 19.9271 128.031 20.4688C127.531 20.3438 127.146 20.1354 126.875 19.8438C126.625 19.5521 126.427 19.2188 126.281 18.8438C126.156 18.4479 126.062 18.0208 126 17.5625C125.958 17.0833 125.917 16.5938 125.875 16.0938C125.938 15.8646 126.021 15.6771 126.125 15.5312C126.25 15.3646 126.312 15.1354 126.312 14.8438C126.479 14.3021 126.646 13.7708 126.812 13.25C126.979 12.7292 127.083 12.1979 127.125 11.6562C127.188 11.4896 127.302 11.375 127.469 11.3125C127.573 10.3125 127.573 9.30208 127.469 8.28125C127.385 7.23958 127.219 6.27083 126.969 5.375C126.99 5.16667 127.01 5.02083 127.031 4.9375C127.073 4.83333 127.073 4.76042 127.031 4.71875C127.01 4.55208 127.062 4.46875 127.188 4.46875C127.333 4.46875 127.479 4.46875 127.625 4.46875C127.625 4.15625 127.562 3.84375 127.438 3.53125C127.333 3.21875 127.229 2.86458 127.125 2.46875C127.271 2.15625 127.365 1.85417 127.406 1.5625C127.448 1.25 127.542 0.979167 127.688 0.75C128.812 1.10417 129.885 1.53125 130.906 2.03125C131.948 2.53125 132.969 2.89583 133.969 3.125C134.719 3.66667 135.49 4.20833 136.281 4.75C137.073 5.27083 137.792 5.85417 138.438 6.5C139.083 7.125 139.625 7.84375 140.062 8.65625C140.5 9.46875 140.75 10.4375 140.812 11.5625ZM133.406 13.2812C133.844 13.1146 134.271 12.9375 134.688 12.75C135.125 12.5625 135.521 12.3542 135.875 12.125C136.25 11.875 136.583 11.5938 136.875 11.2812C137.167 10.9688 137.406 10.5938 137.594 10.1562C137.469 9.90625 137.302 9.6875 137.094 9.5C136.885 9.29167 136.677 9.10417 136.469 8.9375C136.26 8.75 136.052 8.5625 135.844 8.375C135.656 8.1875 135.5 7.95833 135.375 7.6875C135.104 7.64583 134.865 7.57292 134.656 7.46875C134.448 7.34375 134.24 7.22917 134.031 7.125C133.844 7 133.635 6.88542 133.406 6.78125C133.198 6.67708 132.948 6.61458 132.656 6.59375C132.198 6.36458 131.781 6.19792 131.406 6.09375C131.052 5.98958 130.781 5.85417 130.594 5.6875C130.448 5.6875 130.333 5.71875 130.25 5.78125C130.458 6.57292 130.615 7.32292 130.719 8.03125C130.823 8.71875 130.875 9.41667 130.875 10.125C130.896 10.8125 130.865 11.5208 130.781 12.25C130.698 12.9792 130.583 13.7708 130.438 14.625C130.646 14.6042 130.833 14.5625 131 14.5C131.188 14.4167 131.365 14.3333 131.531 14.25C131.719 14.1667 131.906 14.0938 132.094 14.0312C132.302 13.9479 132.542 13.8958 132.812 13.875C132.875 13.75 132.958 13.6458 133.062 13.5625C133.188 13.4792 133.302 13.3854 133.406 13.2812Z" fill="black"/>
</svg>
