<svg width="27" height="27" viewBox="0 0 27 27" fill="none" xmlns="http://www.w3.org/2000/svg">
<path d="M13.4951 0.25C15.3284 0.25 17.0498 0.59812 18.6611 1.29297C20.2762 1.98893 21.6794 2.93243 22.8721 4.12305C24.0647 5.31375 25.01 6.7159 25.707 8.33105C26.4019 9.94132 26.75 11.6618 26.75 13.4951C26.75 15.3285 26.4019 17.0498 25.708 18.6611C25.012 20.2772 24.0677 21.6804 22.875 22.8721C21.6822 24.0638 20.2811 25.0091 18.6689 25.707C17.0618 26.4028 15.3412 26.751 13.5049 26.75C11.6715 26.75 9.95023 26.4019 8.33887 25.708C6.72365 25.011 5.32068 24.0668 4.12793 22.875C2.93519 21.6832 1.98994 20.2821 1.29297 18.6689C0.598151 17.0608 0.250048 15.3402 0.25 13.5049C0.25 11.6695 0.598149 9.94812 1.29297 8.33887C1.98899 6.72367 2.93233 5.32065 4.12207 4.12793C5.31165 2.93541 6.7131 1.98994 8.3291 1.29297C9.9404 0.59807 11.6618 0.250048 13.4951 0.25Z" fill="#3182F7" stroke="#D8D8D8" stroke-width="0.5"/>
<path d="M20.052 12.6524C19.9894 12.7135 19.9149 12.7619 19.833 12.7949C19.751 12.8279 19.6632 12.8449 19.5745 12.8449C19.4858 12.8449 19.398 12.8279 19.316 12.7949C19.2341 12.7619 19.1597 12.7135 19.097 12.6524L14.1749 7.86608V20.7191C14.1749 20.8932 14.1038 21.0601 13.9772 21.1832C13.8506 21.3062 13.6789 21.3754 13.4999 21.3754C13.3209 21.3754 13.1492 21.3062 13.0227 21.1832C12.8961 21.0601 12.825 20.8932 12.825 20.7191V7.86608L7.90286 12.6524C7.77621 12.7756 7.60444 12.8448 7.42533 12.8448C7.24622 12.8448 7.07445 12.7756 6.9478 12.6524C6.82115 12.5293 6.75 12.3623 6.75 12.1882C6.75 12.014 6.82115 11.847 6.9478 11.7239L13.0224 5.81783C13.0851 5.75682 13.1595 5.70841 13.2415 5.67539C13.3234 5.64236 13.4112 5.62537 13.4999 5.62537C13.5886 5.62537 13.6765 5.64236 13.7584 5.67539C13.8403 5.70841 13.9148 5.75682 13.9775 5.81783L20.052 11.7239C20.1148 11.7848 20.1646 11.8572 20.1986 11.9369C20.2325 12.0165 20.25 12.1019 20.25 12.1882C20.25 12.2744 20.2325 12.3598 20.1986 12.4395C20.1646 12.5191 20.1148 12.5915 20.052 12.6524Z" fill="white"/>
</svg>
